Coordinates
version=1
nRows=11
nColumns=40
inDegrees=yes

Units are S.I. units (second, meters, Newtons, ...)
If the header above contains a line with 'inDegrees', this indicates whether rotational values are in degrees (yes) or radians (no).

endheader
time	pelvis_tilt	pelvis_list	pelvis_rotation	pelvis_tx	pelvis_ty	pelvis_tz	hip_flexion_r	hip_adduction_r	hip_rotation_r	knee_angle_r	knee_angle_r_beta	ankle_angle_r	subtalar_angle_r	mtp_angle_r	hip_flexion_l	hip_adduction_l	hip_rotation_l	knee_angle_l	knee_angle_l_beta	ankle_angle_l	subtalar_angle_l	mtp_angle_l	lumbar_extension	lumbar_bending	lumbar_rotation	arm_flex_r	arm_add_r	arm_rot_r	elbow_flex_r	pro_sup_r	wrist_flex_r	wrist_dev_r	arm_flex_l	arm_add_l	arm_rot_l	elbow_flex_l	pro_sup_l	wrist_flex_l	wrist_dev_l
     11.80833333	    -15.15127369	     -7.44779042	      4.13773917	     -0.38028431	      1.14712266	      0.03992554	     73.70258099	     -7.47310995	     -2.99093434	    104.02647535	      1.81560450	     -3.42222426	     -4.69624084	      0.00000000	     63.34791007	     -5.88952253	     13.29435848	     50.64103851	      0.88385286	     -6.12451685	     -7.85252989	      0.00000000	    -42.98678576	      8.42838278	      6.17580630	     89.81858340	    -14.67940205	     37.50334438	     22.78956235	     87.35394852	      0.00000000	      0.00000000	     88.74903867	     -3.18297351	     30.54193992	     19.66030441	     85.91086686	      0.00000000	      0.00000000
     11.81666667	    -15.12180803	     -7.86911026	      4.09996720	     -0.38010171	      1.14628336	      0.04039568	     75.33716590	     -7.40914337	     -2.81203886	    106.20725305	      1.85366626	     -1.43366442	     -3.87739566	      0.00000000	     61.52364737	     -6.33120287	     14.33284397	     48.67165589	      0.84948065	     -7.43001171	     -7.43324241	      0.00000000	    -42.94463657	      8.85020842	      6.46453085	     89.81938762	    -14.61682697	     37.64165064	     22.82572166	     87.34705420	      0.00000000	      0.00000000	     88.59608332	     -3.33506483	     30.49545988	     19.75259047	     85.83338997	      0.00000000	      0.00000000
     11.82500000	    -15.09523707	     -8.43514197	      4.18741114	     -0.38005355	      1.14576005	      0.04119773	     76.90354869	     -7.41785083	     -2.88575016	    108.14624968	      1.88750813	      1.59497217	     -2.78212551	      0.00000000	     60.09513598	     -7.08605921	     14.31467209	     46.74028080	      0.81577179	     -9.34906022	     -7.10483289	      0.00000000	    -42.92611027	      9.42358701	      6.75930690	     89.82065510	    -14.52523596	     37.70536218	     22.86663566	     87.37393456	      0.00000000	      0.00000000	     88.50491622	     -3.48306343	     30.47046399	     19.80313548	     85.83909999	      0.00000000	      0.00000000
     11.83333333	    -15.39487498	     -8.79351109	      4.13400297	     -0.38060458	      1.14509826	      0.04177897	     78.73278601	     -7.44364946	     -2.67049230	    109.66571543	      1.91402781	      3.42722938	     -0.90733751	      0.00000000	     58.78061505	     -7.57129980	     14.56848055	     44.84140716	      0.78263020	    -10.77935459	     -7.29012524	      0.00000000	    -42.61238863	      9.77635681	      6.97254237	     89.82350073	    -14.43726276	     37.73576071	     22.95724037	     87.40290136	      0.00000000	      0.00000000	     88.43413420	     -3.58688571	     30.44582169	     19.84173618	     85.83210660	      0.00000000	      0.00000000
     11.84166667	    -15.32306300	     -9.21134844	      4.21228119	     -0.38044549	      1.14485230	      0.04246987	     80.18790873	     -7.61867600	     -2.78072299	    111.00027622	      1.93732029	      4.88247423	     -0.18178626	      0.00000000	     57.28247041	     -8.17087795	     14.70714781	     43.34945479	      0.75659072	    -12.12829391	     -7.05041350	      0.00000000	    -42.65323460	     10.21316166	      7.18670418	     89.82533087	    -14.35997351	     37.78782418	     22.97763004	     87.43594931	      0.00000000	      0.00000000	     88.37156134	     -3.70551092	     30.39011672	     19.86106202	     85.86261054	      0.00000000	      0.00000000
     11.85000000	    -15.38893771	     -9.50304800	      4.21519006	     -0.38059078	      1.14467733	      0.04312296	     81.73275406	     -7.63586643	     -2.69444832	    112.02927392	      1.95527969	      5.99990516	      0.24982518	      0.00000000	     55.96041613	     -8.59684435	     15.34872534	     42.11722897	      0.73508432	    -13.04710337	     -6.68072835	      0.00000000	    -42.58428797	     10.50407468	      7.36533082	     89.82744091	    -14.27342978	     37.81004610	     23.05530493	     87.38742445	      0.00000000	      0.00000000	     88.31501749	     -3.75283998	     30.34242760	     19.86695593	     85.79468364	      0.00000000	      0.00000000
     11.85833333	    -15.41659143	     -9.85113719	      4.31724851	     -0.38065075	      1.14460504	      0.04383255	     83.15121366	     -7.80772251	     -2.82367861	    112.89335629	      1.97036077	      7.94368409	      0.91868116	      0.00000000	     54.81489679	     -9.12473705	     15.40820894	     41.20893684	      0.71923163	    -13.87409615	     -6.40293536	      0.00000000	    -42.54416067	     10.87971878	      7.51195837	     89.82826435	    -14.21996993	     37.82506830	     23.10306377	     87.44336475	      0.00000000	      0.00000000	     88.28858347	     -3.80423782	     30.27306250	     19.82181770	     85.82085726	      0.00000000	      0.00000000
     11.86666667	    -15.40558163	    -10.09242761	      4.44696307	     -0.38075777	      1.14471228	      0.04437053	     84.44416233	     -8.10217089	     -2.89096209	    113.42665756	      1.97966863	      8.91544897	      1.22412346	      0.00000000	     53.76318386	     -9.54517127	     15.37048791	     40.63972137	      0.70929695	    -14.42601545	     -6.14242294	      0.00000000	    -42.55506449	     11.18136742	      7.58573796	     89.83036381	    -14.18389898	     37.82233492	     23.16112989	     87.42246270	      0.00000000	      0.00000000	     88.26955443	     -3.82107028	     30.16123448	     19.80120577	     85.78357202	      0.00000000	      0.00000000
     11.87500000	    -15.36706547	    -10.19979094	      4.62735537	     -0.38079571	      1.14493126	      0.04472603	     85.63517556	     -8.49422609	     -2.92135635	    113.67160181	      1.98394372	      9.77948485	      1.84165551	      0.00000000	     52.81206149	     -9.83668091	     15.19814316	     40.39476790	      0.70502170	    -14.73557479	     -5.63903179	      0.00000000	    -42.58539725	     11.40553693	      7.52816138	     89.83264671	    -14.15020650	     37.86626521	     23.21770272	     87.44361370	      0.00000000	      0.00000000	     88.22946138	     -3.83717587	     29.85921083	     19.82086329	     85.84533345	      0.00000000	      0.00000000
     11.88333333	    -15.30019455	    -10.31018020	      4.74775579	     -0.38092746	      1.14538294	      0.04518914	     86.73828522	     -8.81027673	     -3.08819030	    113.65048187	      1.98357511	     10.15584160	      1.73743985	      0.00000000	     51.97332793	    -10.13165603	     15.07106023	     40.52662111	      0.70732297	    -14.83277957	     -5.57913751	      0.00000000	    -42.67841846	     11.57151352	      7.52487702	     89.83344636	    -14.15556705	     37.81110840	     23.30871224	     87.43706286	      0.00000000	      0.00000000	     88.24640674	     -3.85685521	     29.82265111	     19.80578796	     85.82152082	      0.00000000	      0.00000000
     11.89166667	    -15.56439169	    -10.39164899	      4.87474101	     -0.38153441	      1.14555354	      0.04573079	     88.06318025	     -9.10853183	     -3.31552148	    113.28309178	      1.97716294	     10.69175082	      1.14409673	      0.00000000	     51.64141710	    -10.35408031	     14.85253222	     40.86182582	      0.71317340	    -14.86327148	     -5.12832041	      0.00000000	    -42.43575110	     11.72024022	      7.44086520	     89.83672006	    -14.17426071	     37.99718154	     23.37276417	     87.42222214	      0.00000000	      0.00000000	     88.28531220	     -3.87051542	     30.00157781	     19.76346211	     85.50894758	      0.00000000	      0.00000000
